<svg width="129" height="28" viewBox="0 0 129 28" fill="none" xmlns="http://www.w3.org/2000/svg">
<g clip-path="url(#clip0_2_308)">
<path d="M0.575348 28H10.0685C14.57 28 18.2192 24.3508 18.2192 19.8493H8.72603C4.22453 19.8493 0.575348 23.4985 0.575348 28Z" fill="#F22BB2"/>
<path d="M1 8.15069V20.137C5.5015 20.137 9.15069 16.4878 9.15069 11.9863V0C4.64919 0 1 3.64919 1 8.15069Z" fill="#8C30F5"/>
<path d="M27.4247 0H17.9315C13.43 0 9.78082 3.64919 9.78082 8.15068H19.274C23.7755 8.15068 27.4247 4.5015 27.4247 0Z" fill="#FE9A22"/>
<path d="M27.4247 19.3699V7.38358C22.9232 7.38358 19.274 11.0328 19.274 15.5343V27.5206C23.7755 27.5206 27.4247 23.8714 27.4247 19.3699Z" fill="#2EC5CE"/>
</g>
<path d="M43.95 9.558C44.6407 9.558 45.3033 9.66533 45.938 9.88C46.5727 10.0853 47.142 10.4073 47.646 10.846C48.1593 11.2753 48.5607 11.826 48.85 12.498C49.1487 13.17 49.298 13.9727 49.298 14.906C49.298 15.0647 49.284 15.2793 49.256 15.55C49.2373 15.8113 49.1907 16.096 49.116 16.404C49.0413 16.712 48.92 17.006 48.752 17.286C48.5933 17.5567 48.374 17.7807 48.094 17.958C47.814 18.1353 47.4593 18.224 47.03 18.224C46.6847 18.224 46.4093 18.168 46.204 18.056C45.9987 17.944 45.8493 17.8087 45.756 17.65C45.6627 17.4913 45.602 17.342 45.574 17.202C45.2567 17.4913 44.8927 17.7107 44.482 17.86C44.0713 18.0093 43.6467 18.084 43.208 18.084C42.4987 18.084 41.9573 17.902 41.584 17.538C41.22 17.1647 41.038 16.6747 41.038 16.068C41.038 15.5267 41.164 15.102 41.416 14.794C41.668 14.4767 41.9947 14.2527 42.396 14.122C42.7973 13.982 43.2127 13.912 43.642 13.912C43.9967 13.912 44.2907 13.9447 44.524 14.01C44.7667 14.066 44.9487 14.1267 45.07 14.192C45.07 13.94 45.028 13.7207 44.944 13.534C44.86 13.338 44.7107 13.1887 44.496 13.086C44.2813 12.974 43.978 12.918 43.586 12.918C43.194 12.918 42.844 12.9693 42.536 13.072C42.2373 13.1747 41.9947 13.3147 41.808 13.492L41.36 12.134C41.7147 11.8913 42.102 11.7187 42.522 11.616C42.9513 11.504 43.3947 11.448 43.852 11.448C44.524 11.448 45.0467 11.546 45.42 11.742C45.8027 11.9287 46.078 12.176 46.246 12.484C46.414 12.792 46.5167 13.1187 46.554 13.464C46.5913 13.8 46.61 14.122 46.61 14.43V15.368C46.61 15.6387 46.6193 15.9093 46.638 16.18C46.666 16.4507 46.7267 16.6747 46.82 16.852C46.9227 17.02 47.0813 17.104 47.296 17.104C47.52 17.104 47.6973 17.02 47.828 16.852C47.9587 16.6747 48.0567 16.46 48.122 16.208C48.1873 15.9467 48.2293 15.6947 48.248 15.452C48.2667 15.2 48.276 14.9993 48.276 14.85C48.276 14.2247 48.1733 13.6507 47.968 13.128C47.7627 12.596 47.4687 12.1387 47.086 11.756C46.7033 11.364 46.2413 11.0653 45.7 10.86C45.1587 10.6453 44.5473 10.538 43.866 10.538C43.194 10.538 42.5873 10.6453 42.046 10.86C41.514 11.0653 41.0613 11.3593 40.688 11.742C40.324 12.1247 40.044 12.5773 39.848 13.1C39.652 13.6133 39.554 14.178 39.554 14.794C39.554 15.382 39.6427 15.9373 39.82 16.46C40.0067 16.9733 40.2727 17.426 40.618 17.818C40.9727 18.2007 41.402 18.504 41.906 18.728C42.41 18.952 42.9887 19.064 43.642 19.064C44.1273 19.064 44.5287 19.008 44.846 18.896C45.1727 18.784 45.5087 18.6627 45.854 18.532L46.134 19.484C45.7327 19.6707 45.3127 19.8107 44.874 19.904C44.4447 19.9973 44.02 20.044 43.6 20.044C42.9 20.044 42.242 19.918 41.626 19.666C41.01 19.4233 40.4687 19.0733 40.002 18.616C39.5447 18.1587 39.1807 17.608 38.91 16.964C38.6487 16.3107 38.518 15.578 38.518 14.766C38.518 13.9073 38.6627 13.156 38.952 12.512C39.2507 11.8587 39.652 11.3127 40.156 10.874C40.66 10.4353 41.2387 10.1087 41.892 9.894C42.5453 9.67 43.2313 9.558 43.95 9.558ZM44.51 16.6C44.594 16.5533 44.678 16.4973 44.762 16.432C44.846 16.3667 44.916 16.292 44.972 16.208C45.028 16.124 45.056 16.0307 45.056 15.928V15.354C44.916 15.298 44.7153 15.242 44.454 15.186C44.202 15.1207 43.9407 15.088 43.67 15.088C43.418 15.088 43.208 15.1253 43.04 15.2C42.8813 15.2653 42.76 15.3727 42.676 15.522C42.6013 15.662 42.564 15.8393 42.564 16.054C42.564 16.2313 42.592 16.3807 42.648 16.502C42.704 16.614 42.7927 16.698 42.914 16.754C43.0447 16.81 43.2033 16.838 43.39 16.838C43.5207 16.838 43.6933 16.824 43.908 16.796C44.132 16.7587 44.3327 16.6933 44.51 16.6ZM55.2839 18.14C54.7332 18.14 54.2572 18.0327 53.8559 17.818C53.4545 17.594 53.1372 17.272 52.9039 16.852V18H50.5939V7.78H53.2539V11.728C53.4685 11.3267 53.7719 11.0233 54.1639 10.818C54.5559 10.6033 55.0179 10.496 55.5499 10.496C55.9979 10.496 56.4132 10.594 56.7959 10.79C57.1785 10.9767 57.5099 11.2427 57.7899 11.588C58.0792 11.9333 58.3032 12.344 58.4619 12.82C58.6205 13.2867 58.6999 13.7953 58.6999 14.346C58.6999 14.8873 58.6112 15.3913 58.4339 15.858C58.2659 16.3153 58.0279 16.7167 57.7199 17.062C57.4212 17.4073 57.0619 17.6733 56.6419 17.86C56.2312 18.0467 55.7785 18.14 55.2839 18.14ZM54.5139 15.9C54.7285 15.9 54.9245 15.8627 55.1019 15.788C55.2792 15.7133 55.4332 15.6107 55.5639 15.48C55.6945 15.34 55.7925 15.1767 55.8579 14.99C55.9325 14.8033 55.9699 14.5933 55.9699 14.36C55.9699 14.0613 55.9092 13.7907 55.7879 13.548C55.6759 13.296 55.5172 13.1 55.3119 12.96C55.1159 12.8107 54.8872 12.736 54.6259 12.736C54.4392 12.736 54.2572 12.7827 54.0799 12.876C53.9025 12.9693 53.7392 13.1 53.5899 13.268C53.4499 13.4267 53.3379 13.6133 53.2539 13.828V15.144C53.3379 15.2653 53.4265 15.3773 53.5199 15.48C53.6225 15.5733 53.7252 15.6527 53.8279 15.718C53.9305 15.774 54.0379 15.8207 54.1499 15.858C54.2712 15.886 54.3925 15.9 54.5139 15.9ZM63.2843 18.14C62.6403 18.14 62.0663 18.042 61.5623 17.846C61.0583 17.6407 60.6337 17.3653 60.2883 17.02C59.9523 16.6747 59.6957 16.278 59.5183 15.83C59.341 15.382 59.2523 14.9107 59.2523 14.416C59.2523 13.7067 59.4063 13.058 59.7143 12.47C60.0223 11.8727 60.475 11.3967 61.0723 11.042C61.6697 10.678 62.407 10.496 63.2843 10.496C64.1617 10.496 64.899 10.6733 65.4963 11.028C66.0937 11.3827 66.5463 11.8493 66.8543 12.428C67.1623 13.0067 67.3163 13.6367 67.3163 14.318C67.3163 14.458 67.307 14.6027 67.2883 14.752C67.279 14.892 67.265 15.018 67.2463 15.13H62.0803C62.099 15.3913 62.169 15.606 62.2903 15.774C62.421 15.9327 62.5797 16.0493 62.7663 16.124C62.9623 16.1987 63.163 16.236 63.3683 16.236C63.6577 16.236 63.9283 16.1707 64.1803 16.04C64.4417 15.9093 64.6143 15.7273 64.6983 15.494L66.9523 16.138C66.7563 16.53 66.481 16.8753 66.1263 17.174C65.781 17.4727 65.3703 17.7107 64.8943 17.888C64.4183 18.056 63.8817 18.14 63.2843 18.14ZM62.0243 13.534H64.4603C64.4323 13.2913 64.3623 13.086 64.2503 12.918C64.1477 12.75 64.0077 12.6193 63.8303 12.526C63.6623 12.4327 63.4663 12.386 63.2423 12.386C63.0183 12.386 62.8177 12.4327 62.6403 12.526C62.4723 12.6193 62.3323 12.75 62.2203 12.918C62.1177 13.086 62.0523 13.2913 62.0243 13.534ZM71.8156 18.14C71.1716 18.14 70.5976 18.042 70.0936 17.846C69.5896 17.6407 69.1649 17.3653 68.8196 17.02C68.4836 16.6747 68.2269 16.278 68.0496 15.83C67.8722 15.382 67.7836 14.9107 67.7836 14.416C67.7836 13.7067 67.9376 13.058 68.2456 12.47C68.5536 11.8727 69.0062 11.3967 69.6036 11.042C70.2009 10.678 70.9382 10.496 71.8156 10.496C72.6929 10.496 73.4302 10.6733 74.0276 11.028C74.6249 11.3827 75.0776 11.8493 75.3856 12.428C75.6936 13.0067 75.8476 13.6367 75.8476 14.318C75.8476 14.458 75.8382 14.6027 75.8196 14.752C75.8102 14.892 75.7962 15.018 75.7776 15.13H70.6116C70.6302 15.3913 70.7002 15.606 70.8216 15.774C70.9522 15.9327 71.1109 16.0493 71.2976 16.124C71.4936 16.1987 71.6942 16.236 71.8996 16.236C72.1889 16.236 72.4596 16.1707 72.7116 16.04C72.9729 15.9093 73.1456 15.7273 73.2296 15.494L75.4836 16.138C75.2876 16.53 75.0122 16.8753 74.6576 17.174C74.3122 17.4727 73.9016 17.7107 73.4256 17.888C72.9496 18.056 72.4129 18.14 71.8156 18.14ZM70.5556 13.534H72.9916C72.9636 13.2913 72.8936 13.086 72.7816 12.918C72.6789 12.75 72.5389 12.6193 72.3616 12.526C72.1936 12.4327 71.9976 12.386 71.7736 12.386C71.5496 12.386 71.3489 12.4327 71.1716 12.526C71.0036 12.6193 70.8636 12.75 70.7516 12.918C70.6489 13.086 70.5836 13.2913 70.5556 13.534ZM80.3468 18.14C79.7028 18.14 79.1288 18.042 78.6248 17.846C78.1208 17.6407 77.6962 17.3653 77.3508 17.02C77.0148 16.6747 76.7582 16.278 76.5808 15.83C76.4035 15.382 76.3148 14.9107 76.3148 14.416C76.3148 13.7067 76.4688 13.058 76.7768 12.47C77.0848 11.8727 77.5375 11.3967 78.1348 11.042C78.7322 10.678 79.4695 10.496 80.3468 10.496C81.2242 10.496 81.9615 10.6733 82.5588 11.028C83.1562 11.3827 83.6088 11.8493 83.9168 12.428C84.2248 13.0067 84.3788 13.6367 84.3788 14.318C84.3788 14.458 84.3695 14.6027 84.3508 14.752C84.3415 14.892 84.3275 15.018 84.3088 15.13H79.1428C79.1615 15.3913 79.2315 15.606 79.3528 15.774C79.4835 15.9327 79.6422 16.0493 79.8288 16.124C80.0248 16.1987 80.2255 16.236 80.4308 16.236C80.7202 16.236 80.9908 16.1707 81.2428 16.04C81.5042 15.9093 81.6768 15.7273 81.7608 15.494L84.0148 16.138C83.8188 16.53 83.5435 16.8753 83.1888 17.174C82.8435 17.4727 82.4328 17.7107 81.9568 17.888C81.4808 18.056 80.9442 18.14 80.3468 18.14ZM79.0868 13.534H81.5228C81.4948 13.2913 81.4248 13.086 81.3128 12.918C81.2102 12.75 81.0702 12.6193 80.8928 12.526C80.7248 12.4327 80.5288 12.386 80.3048 12.386C80.0808 12.386 79.8802 12.4327 79.7028 12.526C79.5348 12.6193 79.3948 12.75 79.2828 12.918C79.1802 13.086 79.1148 13.2913 79.0868 13.534ZM90.1101 18L88.4441 15.312L87.9121 15.9V18H85.2521V7.78H87.9121V13.366L89.8721 10.636H92.6721L90.1381 13.856L92.9241 18H90.1101ZM100.051 15.62V18H93.5685V15.62H95.5565V12.834C95.4725 12.946 95.3418 13.058 95.1645 13.17C94.9872 13.2727 94.7865 13.3707 94.5625 13.464C94.3478 13.5573 94.1285 13.632 93.9045 13.688C93.6805 13.744 93.4798 13.772 93.3025 13.772V11.336C93.4332 11.336 93.6105 11.2893 93.8345 11.196C94.0678 11.1027 94.3058 10.986 94.5485 10.846C94.7912 10.6967 95.0058 10.5473 95.1925 10.398C95.3792 10.2487 95.5005 10.118 95.5565 10.006H98.2725V15.62H100.051ZM108.407 14.906C108.407 15.55 108.239 16.1147 107.903 16.6C107.567 17.0853 107.114 17.4633 106.545 17.734C105.975 18.0047 105.345 18.14 104.655 18.14C104.001 18.14 103.385 18.0047 102.807 17.734C102.237 17.4633 101.775 17.0807 101.421 16.586C101.075 16.082 100.903 15.494 100.903 14.822C100.903 14.486 100.963 14.1827 101.085 13.912C101.215 13.6413 101.374 13.4033 101.561 13.198C101.747 12.9927 101.929 12.8247 102.107 12.694C101.929 12.582 101.771 12.4373 101.631 12.26C101.491 12.0827 101.379 11.8867 101.295 11.672C101.22 11.448 101.183 11.2287 101.183 11.014C101.183 10.538 101.29 10.118 101.505 9.754C101.719 9.38067 101.999 9.068 102.345 8.816C102.69 8.564 103.063 8.37733 103.465 8.256C103.875 8.12533 104.272 8.06 104.655 8.06C105.037 8.06 105.434 8.12533 105.845 8.256C106.255 8.37733 106.633 8.564 106.979 8.816C107.324 9.05867 107.604 9.362 107.819 9.726C108.033 10.09 108.141 10.51 108.141 10.986C108.141 11.2007 108.099 11.42 108.015 11.644C107.931 11.868 107.819 12.0733 107.679 12.26C107.539 12.4467 107.38 12.5913 107.203 12.694C107.389 12.834 107.576 13.0113 107.763 13.226C107.949 13.4313 108.103 13.674 108.225 13.954C108.346 14.234 108.407 14.5513 108.407 14.906ZM105.705 14.752C105.705 14.5933 105.677 14.458 105.621 14.346C105.574 14.2247 105.499 14.122 105.397 14.038C105.303 13.954 105.191 13.8933 105.061 13.856C104.939 13.8093 104.804 13.786 104.655 13.786C104.449 13.786 104.267 13.828 104.109 13.912C103.95 13.9867 103.824 14.0987 103.731 14.248C103.647 14.388 103.605 14.556 103.605 14.752C103.605 14.892 103.633 15.0227 103.689 15.144C103.745 15.256 103.819 15.3587 103.913 15.452C104.006 15.536 104.113 15.6013 104.235 15.648C104.365 15.6947 104.505 15.718 104.655 15.718C104.86 15.718 105.042 15.676 105.201 15.592C105.359 15.4987 105.481 15.382 105.565 15.242C105.658 15.0927 105.705 14.9293 105.705 14.752ZM103.885 11.07C103.885 11.238 103.922 11.378 103.997 11.49C104.071 11.5927 104.169 11.672 104.291 11.728C104.412 11.784 104.533 11.812 104.655 11.812C104.785 11.812 104.907 11.784 105.019 11.728C105.14 11.672 105.238 11.5927 105.313 11.49C105.397 11.378 105.439 11.238 105.439 11.07C105.439 10.9487 105.406 10.8367 105.341 10.734C105.275 10.6313 105.182 10.552 105.061 10.496C104.949 10.4307 104.813 10.398 104.655 10.398C104.505 10.398 104.37 10.4307 104.249 10.496C104.137 10.552 104.048 10.6313 103.983 10.734C103.917 10.8367 103.885 10.9487 103.885 11.07Z" fill="black"/>
<defs>
<clipPath id="clip0_2_308">
<rect width="28" height="28" fill="white"/>
</clipPath>
</defs>
</svg>
